<?xml version="1.0" encoding="UTF-8" standalone="no"?>
<!-- Created with Inkscape (http://www.inkscape.org/) -->

<svg
   width="20"
   height="20"
   viewBox="0 0 5.2916665 5.2916665"
   version="1.1"
   id="svg1"
   inkscape:version="1.4 (86a8ad7, 2024-10-11)"
   sodipodi:docname="Accelerator Icon.svg"
   xml:space="preserve"
   xmlns:inkscape="http://www.inkscape.org/namespaces/inkscape"
   xmlns:sodipodi="http://sodipodi.sourceforge.net/DTD/sodipodi-0.dtd"
   xmlns="http://www.w3.org/2000/svg"
   xmlns:svg="http://www.w3.org/2000/svg"><sodipodi:namedview
     id="namedview1"
     pagecolor="#505050"
     bordercolor="#eeeeee"
     borderopacity="1"
     inkscape:showpageshadow="0"
     inkscape:pageopacity="0"
     inkscape:pagecheckerboard="0"
     inkscape:deskcolor="#505050"
     inkscape:document-units="mm"
     inkscape:zoom="16.388211"
     inkscape:cx="20.563563"
     inkscape:cy="9.3664892"
     inkscape:window-width="1920"
     inkscape:window-height="1094"
     inkscape:window-x="-11"
     inkscape:window-y="-11"
     inkscape:window-maximized="1"
     inkscape:current-layer="layer1"
     showgrid="true"><inkscape:grid
       id="grid18"
       units="mm"
       originx="0"
       originy="0"
       spacingx="0.99999997"
       spacingy="0.99999997"
       empcolor="#0099e5"
       empopacity="0.30196078"
       color="#0099e5"
       opacity="0.14901961"
       empspacing="5"
       enabled="true"
       visible="true" /></sodipodi:namedview><defs
     id="defs1" /><g
     inkscape:label="Layer 1"
     inkscape:groupmode="layer"
     id="layer1"><path
       id="path18"
       style="fill:#000000;stroke:none;stroke-width:0.116549;stroke-linecap:round;stroke-linejoin:round;stroke-dasharray:none"
       d="M 3.1858314,0.95844749 A 0.18748799,0.18748799 0 0 0 2.9982579,1.146021 V 1.8959271 A 0.18748799,0.18748799 0 0 0 3.1858314,2.0835006 0.18748799,0.18748799 0 0 0 3.3734048,1.8959271 V 1.146021 A 0.18748799,0.18748799 0 0 0 3.1858314,0.95844749 Z M 0.18601281,2.0821442 0.19046981,3.2097163 H 2.4208107 L 2.8502145,3.0207864 h 1.117496 L 5.2285994,2.6458333 3.9677105,2.2708802 H 2.8502145 L 2.4208107,2.0821442 Z M 3.1858314,3.2083599 A 0.18748799,0.18748799 0 0 0 2.9982579,3.3957395 v 0.7501 A 0.18748799,0.18748799 0 0 0 3.1858314,4.3332192 0.18748799,0.18748799 0 0 0 3.3734048,4.1458395 v -0.7501 A 0.18748799,0.18748799 0 0 0 3.1858314,3.2083599 Z" /></g></svg>
