<?xml version="1.0" encoding="UTF-8"?>
<!-- Created with Inkscape (http://www.inkscape.org/) -->
<svg width="20" height="20" version="1.1" viewBox="0 0 5.2917 5.2917" xml:space="preserve" xmlns="http://www.w3.org/2000/svg"><path d="m0.77917 0.64098s0.41538 0.63882 0.50121 1.0024c0.15355 0.65045 0.15355 1.3544 0 2.0049-0.085837 0.36361-0.50121 1.0024-0.50121 1.0024s0.80673-0.57227 1.0024-1.0024c0.1387-0.30488 0.14972-0.66748 0.14972-1.0024s-0.011014-0.69755-0.14972-1.0024c-0.19569-0.43016-1.0024-1.0024-1.0024-1.0024zm0.86048 0s0.41538 0.63882 0.50121 1.0024c0.15355 0.65045 0.15355 1.3544 0 2.0049-0.085837 0.36361-0.50121 1.0024-0.50121 1.0024s0.80673-0.57227 1.0024-1.0024c0.1387-0.30488 0.14972-0.66748 0.14972-1.0024s-0.011014-0.69755-0.14972-1.0024c-0.19569-0.43016-1.0024-1.0024-1.0024-1.0024zm0.86022 0s0.41538 0.63882 0.50121 1.0024c0.15355 0.65045 0.15355 1.3544 0 2.0049-0.085837 0.36361-0.50121 1.0024-0.50121 1.0024s0.80673-0.57227 1.0024-1.0024c0.1387-0.30488 0.14972-0.66748 0.14972-1.0024s-0.011014-0.69755-0.14972-1.0024c-0.19569-0.43016-1.0024-1.0024-1.0024-1.0024zm0.86048 0s0.41538 0.63882 0.50121 1.0024c0.15355 0.65045 0.15355 1.3544 0 2.0049-0.085837 0.36361-0.50121 1.0024-0.50121 1.0024s0.80673-0.57227 1.0024-1.0024c0.1387-0.30488 0.14972-0.66748 0.14972-1.0024s-0.011014-0.69755-0.14972-1.0024c-0.19569-0.43016-1.0024-1.0024-1.0024-1.0024z"/></svg>
