<?xml version="1.0" encoding="UTF-8"?>
<!-- Created with Inkscape (http://www.inkscape.org/) -->
<svg width="20" height="20" version="1.1" viewBox="0 0 5.2917 5.2917" xmlns="http://www.w3.org/2000/svg">
 <path d="m2.3166 1.7662c-0.14462 0.013408-0.73359-0.42346-0.73359-0.42346s0.14774 0.60071 0.067199 0.67097c-0.080538 0.07026-0.93684-0.12249-0.93684-0.12249s0.6145 0.58519 0.59435 0.71422c-0.020147 0.12902-0.60571 0.37584-0.60571 0.37584s0.85408 0.20191 0.94821 0.27478c0.094125 0.072869-0.15941 0.76815-0.15941 0.76815s0.714-0.54702 0.90194-0.49683c0.18794 0.050187 0.31416 0.87583 0.31416 0.87583s0.42726-0.8084 0.54027-0.83537c0.11302-0.026974 0.73453 0.44956 0.73453 0.44956s-0.33827-0.88724-0.28949-0.96363c0.04878-0.076385 0.68199-0.21317 0.68199-0.21317s-0.5556-0.18184-0.58203-0.29376c-0.026423-0.11192 0.49281-0.32348 0.49281-0.32348s-0.60134-0.11349-0.64036-0.18346c-0.039022-0.069994 0.094463-0.82736 0.094463-0.82736s-0.58948 0.67349-0.70851 0.62983c-0.11902-0.043664-0.41886-0.85679-0.41886-0.85679s-0.15051 0.76723-0.29513 0.78063z" fill="none" stroke="#000" stroke-width=".39688"/>
</svg>
