<?xml version="1.0" encoding="UTF-8"?>
<!-- Created with Inkscape (http://www.inkscape.org/) -->
<svg width="20" height="20" version="1.1" viewBox="0 0 5.2917 5.2917" xml:space="preserve" xmlns="http://www.w3.org/2000/svg"><path d="m2.498 0.28675c-0.20599 3.195e-4 -0.37253 0.16791-0.37157 0.37389v0.22155l0.30295 0.002329c7.764e-4 -6.08e-6 0.00155-6.08e-6 0.00233 0 0.16866 0.001463 0.32244 0.066816 0.4396 0.17212v-0.39599c9.692e-4 -0.20667-0.16665-0.37454-0.37332-0.37389zm-0.87688 0.008723c-0.20599-9.6602e-4 -0.37357 0.16558-0.37389 0.37157v0.26283c0.081394-0.033738 0.16888-0.05241 0.25934-0.051752l0.48554 0.003488v-0.21457c-3.194e-4 -0.20485-0.16614-0.37093-0.37099-0.37157zm1.7555 0.21108c-0.20485 6.3984e-4 -0.37067 0.16672-0.37099 0.37157v0.34424c0.057501 0.099602 0.090797 0.21427 0.09013 0.33668-5.375e-4 0.11981-0.033321 0.23273-0.089548 0.33028 6.363e-4 0.2044 0.16601 0.37003 0.37041 0.37099 0.20576-3.203e-4 0.37221-0.16755 0.37157-0.37331v-1.0089c-3.205e-4 -0.20508-0.16649-0.37125-0.37157-0.37157zm0.8792 0.12095c-0.20576-6.4336e-4 -0.37299 0.16581-0.37331 0.37157v0.91177c-9.699e-4 0.20667 0.16664 0.37454 0.37331 0.37389 0.20599-3.195e-4 0.37253-0.16791 0.37157-0.37389v-0.91177c-3.204e-4 -0.20508-0.16649-0.37125-0.37157-0.37157zm-2.7493 0.40006c-0.16743-0.0012153-0.32498 0.077742-0.4239 0.21282l-0.59137 0.80245c-0.13556 0.18462-0.13454 0.43621 0.002326 0.61986l0.019189 0.025586c0.035014 0.18149 0.073267 0.3361 0.073267 0.3361l0.38145 0.71813 0.69022 0.88967 0.00931 0.37273 2.3521-0.018026 0.036633-0.24539s0.3995-0.21808 0.47217-0.89025 0.12739-1.2172 0.00931-1.4624c-0.00469-0.00976-0.010622-0.019057-0.016281-0.028493-0.077872 0.046557-0.16865 0.073699-0.26516 0.07385-0.24888 7.786e-4 -0.36935-0.10075-0.42061-0.33489-0.064216 0.21455-0.22414 0.31011-0.4586 0.31047-0.23214-0.0010871-0.42993-0.15813-0.49542-0.37041-0.018821 0.012335-0.043694 0.026133-0.079082 0.040704-0.15442 0.063584-0.30477 0.11326-0.44493 0.12484-0.099992 0.00826-0.43377-0.00232-0.5405-0.015938-0.029125 0.04096-0.059514 0.17931-0.049154 0.23862 0.12367 0.099533 0.35241 0.28688 0.50107 0.42667 0.16005 0.1505 0.32725 0.36155 0.37084 0.44175 0.057594 0.10598 0.19886 0.40091 0.1807 0.50991-0.00955 0.057343-0.035265 0.15243-0.05873 0.23434 0.00119-0.019753 0.00243-0.03935 0.0029-0.060474 0.06054-0.34691-0.53136-1.0607-1.1234-1.5043 0.00613-0.29003 0.06976-0.29833 0.12502-0.40413l0.65708 0.00639c0.18459 7.309e-4 0.34648-0.094559 0.43961-0.23899h0.00116l0.00756-0.012793h-5.792e-4c0.047114-0.077912 0.075155-0.16922 0.075593-0.2669 0.0023521-0.28764-0.2293-0.52258-0.51694-0.52508z" fill="#1a1a1a" stroke-linecap="round" stroke-width="1.1252"/></svg>
